<svg width="22" height="20" viewBox="0 0 22 20" fill="none" xmlns="http://www.w3.org/2000/svg">
<path d="M10.2601 2.48H4.79009C3.9253 2.4931 3.10022 2.84519 2.4924 3.46048C1.88458 4.07578 1.54262 4.90511 1.54009 5.77V14.11C1.54262 14.9749 1.88458 15.8042 2.4924 16.4195C3.10022 17.0348 3.9253 17.3869 4.79009 17.4H10.0301C10.229 17.4 10.4198 17.479 10.5604 17.6197C10.7011 17.7603 10.7801 17.9511 10.7801 18.15C10.7801 18.3489 10.7011 18.5397 10.5604 18.6803C10.4198 18.821 10.229 18.9 10.0301 18.9H4.79009C3.52052 18.8974 2.3037 18.3919 1.40597 17.4941C0.508244 16.5964 0.00273603 15.3796 9.38228e-05 14.11V5.77C-0.00385775 5.13798 0.11705 4.51139 0.355877 3.92622C0.594705 3.34104 0.946749 2.80879 1.3918 2.36002C1.83686 1.91125 2.36616 1.55479 2.94933 1.3111C3.5325 1.06742 4.15806 0.941304 4.79009 0.94H10.2201C10.419 0.94 10.6098 1.01902 10.7504 1.15967C10.8911 1.30032 10.9701 1.49109 10.9701 1.69C10.9701 1.88891 10.8911 2.07968 10.7504 2.22033C10.6098 2.36098 10.419 2.44 10.2201 2.44L10.2601 2.48ZM21.5401 5.77V14.11C21.5481 15.3796 21.0528 16.6007 20.1625 17.5059C19.2723 18.4111 18.0597 18.9268 16.7901 18.94H14.3601V19.17C14.3601 19.3689 14.2811 19.5597 14.1404 19.7003C13.9998 19.841 13.809 19.92 13.6101 19.92C13.4112 19.92 13.2204 19.841 13.0798 19.7003C12.9391 19.5597 12.8601 19.3689 12.8601 19.17V0.75C12.8601 0.551088 12.9391 0.360322 13.0798 0.21967C13.2204 0.0790178 13.4112 0 13.6101 0C13.809 0 13.9998 0.0790178 14.1404 0.21967C14.2811 0.360322 14.3601 0.551088 14.3601 0.75V0.94H16.7901C18.0597 0.9532 19.2723 1.46886 20.1625 2.37409C21.0528 3.27932 21.5481 4.50039 21.5401 5.77V5.77ZM20.0401 5.77C20.0376 4.90511 19.6956 4.07578 19.0878 3.46048C18.48 2.84519 17.6549 2.4931 16.7901 2.48H14.3601V17.4H16.7901C17.6618 17.3974 18.4971 17.0499 19.1136 16.4335C19.73 15.817 20.0775 14.9818 20.0801 14.11L20.0401 5.77ZM3.10009 9.94C3.10009 10.1378 3.15874 10.3311 3.26862 10.4956C3.37851 10.66 3.53468 10.7882 3.71741 10.8639C3.90014 10.9396 4.1012 10.9594 4.29518 10.9208C4.48917 10.8822 4.66735 10.787 4.8072 10.6471C4.94705 10.5073 5.04229 10.3291 5.08088 10.1351C5.11946 9.94111 5.09966 9.74004 5.02397 9.55732C4.94829 9.37459 4.82011 9.21841 4.65566 9.10853C4.49121 8.99865 4.29788 8.94 4.10009 8.94C3.83488 8.94 3.58052 9.04536 3.39299 9.23289C3.20545 9.42043 3.10009 9.67478 3.10009 9.94ZM6.69009 9.94C6.69009 10.1378 6.74874 10.3311 6.85862 10.4956C6.96851 10.66 7.12468 10.7882 7.30741 10.8639C7.49014 10.9396 7.6912 10.9594 7.88518 10.9208C8.07916 10.8822 8.25735 10.787 8.3972 10.6471C8.53705 10.5073 8.63229 10.3291 8.67088 10.1351C8.70946 9.94111 8.68966 9.74004 8.61397 9.55732C8.53829 9.37459 8.41011 9.21841 8.24566 9.10853C8.08121 8.99865 7.88787 8.94 7.69009 8.94C7.42488 8.94 7.17052 9.04536 6.98299 9.23289C6.79545 9.42043 6.69009 9.67478 6.69009 9.94V9.94Z" fill="#5E6278"/>
</svg>
